<svg width="83" height="43" viewBox="0 0 83 43" fill="none" xmlns="http://www.w3.org/2000/svg">
<path fill-rule="evenodd" clip-rule="evenodd" d="M18.6318 32.3461L59.7793 32.382C56.004 29.8605 44.6375 28.5957 39.2044 28.5961C37.6808 28.5962 35.6473 28.7004 33.4349 28.9065C33.6704 27.2583 33.6902 10.7408 33.4567 9.52024C29.8127 10.1576 30.7476 14.1225 30.7464 17.8252C30.7452 21.6034 30.8058 25.4274 30.7371 29.2001C25.8887 29.8043 20.8263 30.8583 18.6318 32.3461ZM40.3903 14.4048H43.985C43.8543 11.1752 43.6381 8.07083 47.0306 7.69436L47.033 27.3989L44.0414 27.1215C43.9524 23.8301 44.0108 20.4476 44.0237 17.1288H40.39L40.389 26.9263L36.7036 26.9739C36.7014 21.9932 36.7019 17.0123 36.7041 12.0316C36.7059 7.92588 35.4658 0.723374 40.3917 1.0082L40.3903 14.4048ZM26.0448 28.1662C29.0605 28.235 28.4297 27.3826 28.4277 24.6133L28.4257 14.1678C27.2859 14.0286 26.4089 14.8105 26.1521 15.743C25.9255 16.5648 26.0639 26.752 26.0448 28.1662ZM52.3674 28.1783L52.3567 14.138C49.2041 14.0124 49.9828 18.4049 49.9828 21.0483C49.9825 28.3101 49.3198 28.1686 52.3674 28.1783Z" fill="#FEFEFE"/>
<path fill-rule="evenodd" clip-rule="evenodd" d="M18.5065 32.3461L59.654 32.382C55.8787 29.8605 44.5123 28.5957 39.0791 28.5961C37.5555 28.5962 35.5221 28.7004 33.3097 28.9065C33.5452 27.2583 33.565 10.7408 33.3314 9.52024C29.6874 10.1576 30.6224 14.1225 30.6212 17.8252C30.6199 21.6034 30.6806 25.4274 30.6118 29.2001C25.7634 29.8043 20.701 30.8583 18.5065 32.3461ZM40.2651 14.4048H43.8598C43.7291 11.1752 43.5128 8.07083 46.9053 7.69436L46.9078 27.3989L43.9161 27.1215C43.8271 23.8301 43.8855 20.4476 43.8985 17.1288H40.2647L40.2637 26.9263L36.5783 26.9739C36.5761 21.9932 36.5766 17.0123 36.5789 12.0316C36.5806 7.92588 35.3405 0.723374 40.2664 1.0082L40.2651 14.4048ZM25.9196 28.1662C28.9352 28.235 28.3044 27.3826 28.3024 24.6133L28.3004 14.1678C27.1606 14.0286 26.2837 14.8105 26.0268 15.743C25.8002 16.5648 25.9387 26.752 25.9196 28.1662ZM52.2421 28.1783L52.2315 14.138C49.0789 14.0124 49.8576 18.4049 49.8576 21.0483C49.8573 28.3101 49.1946 28.1686 52.2421 28.1783Z" fill="black" stroke="black" stroke-width="0.216"/>
<path fill-rule="evenodd" clip-rule="evenodd" d="M13.8051 41.71V42.1904H9.8439V35.7879H11.0303V41.71H13.8051ZM15.7088 42.1904H14.5323V35.7879H15.7088V42.1904ZM22.5624 39.1999V41.3587C22.1849 41.6871 21.7943 41.9339 21.3891 42.0989C20.9838 42.264 20.5639 42.3473 20.1292 42.3473C19.1749 42.3473 18.4019 42.0385 17.8104 41.4208C17.2204 40.803 16.9246 39.9942 16.9246 38.9925C16.9246 38.0381 17.2221 37.2423 17.8186 36.605C18.4134 35.9693 19.152 35.6506 20.0328 35.6506C20.5704 35.6506 21.0345 35.7601 21.4299 35.9807C21.8238 36.2014 22.1506 36.5314 22.4088 36.971L22.0264 37.2391C21.827 36.8501 21.5819 36.5576 21.291 36.3631C20.9986 36.1687 20.6603 36.0723 20.2779 36.0723C19.6357 36.0723 19.1275 36.337 18.7516 36.8665C18.3774 37.3976 18.1895 38.1199 18.1895 39.0366C18.1895 39.9174 18.3693 40.602 18.7287 41.0923C19.0866 41.5825 19.5883 41.8277 20.2289 41.8277C20.4789 41.8277 20.7109 41.7901 20.9267 41.7133C21.1407 41.6364 21.327 41.5237 21.4839 41.3783V39.1999H22.5624ZM25.0642 39.1706V42.1904H23.8778V35.7879H25.0642V38.6999H27.7409V35.7879H28.9175V42.1904H27.7409V39.1706H25.0642ZM31.4782 42.1904V36.2684H29.8016V35.7879H34.3314V36.2684H32.6548V42.1904H31.4782ZM36.4116 42.1904H35.2351V35.7879H36.4116V42.1904ZM38.0687 42.1904V35.7879H39.1554L42.4711 40.2082V35.7879H43.0397V42.1904H42.4711L38.6374 37.0903V42.1904H38.0687ZM49.8426 39.1999V41.3587C49.4652 41.6871 49.0745 41.9339 48.6693 42.0989C48.264 42.264 47.8441 42.3473 47.4094 42.3473C46.4551 42.3473 45.6821 42.0385 45.0905 41.4208C44.5006 40.803 44.2048 39.9942 44.2048 38.9925C44.2048 38.0381 44.5023 37.2423 45.0987 36.605C45.6936 35.9693 46.4322 35.6506 47.313 35.6506C47.8506 35.6506 48.3147 35.7601 48.7101 35.9807C49.104 36.2014 49.4308 36.5314 49.689 36.971L49.3066 37.2391C49.1073 36.8501 48.8621 36.5576 48.5712 36.3631C48.2788 36.1687 47.9405 36.0723 47.5581 36.0723C46.9159 36.0723 46.4076 36.337 46.0318 36.8665C45.6576 37.3976 45.4697 38.1199 45.4697 39.0366C45.4697 39.9174 45.6494 40.602 46.0089 41.0923C46.3668 41.5825 46.8685 41.8277 47.5091 41.8277C47.7591 41.8277 47.9911 41.7901 48.2068 41.7133C48.4209 41.6364 48.6072 41.5237 48.7641 41.3783V39.1999H49.8426ZM52.3444 39.1706V42.1904H51.158V35.7879H52.3444V38.6999H55.0211V35.7879H56.1977V42.1904H55.0211V39.1706H52.3444ZM58.3679 40.0824H60.2308L59.2977 37.7473L58.3679 40.0824ZM56.974 42.1904L59.6033 35.6605L62.3371 42.1904H61.074L60.4073 40.4844H58.2012L57.541 42.1904H56.974ZM62.932 35.7879H64.1184V39.6543C64.1184 40.4076 64.2246 40.9321 64.4354 41.2279C64.6462 41.5237 65.0025 41.6708 65.5041 41.6708C66.0042 41.6708 66.3604 41.5237 66.5696 41.2279C66.7788 40.9321 66.8833 40.4076 66.8833 39.6543V35.7879H67.452V39.87C67.452 40.6952 67.2641 41.3145 66.8899 41.728C66.514 42.1414 65.9503 42.3473 65.1969 42.3473C64.8619 42.3473 64.54 42.2869 64.2328 42.1659C63.9239 42.045 63.6707 41.8783 63.4729 41.6675C63.2785 41.4632 63.1395 41.2296 63.0562 40.9665C62.9728 40.7034 62.932 40.3389 62.932 39.87V35.7879ZM69.1629 40.9746C69.3035 41.2426 69.4833 41.4518 69.7022 41.6022C69.9195 41.7525 70.1549 41.8277 70.4082 41.8277C70.7497 41.8277 71.0275 41.7198 71.2416 41.5041C71.4556 41.2884 71.5618 41.0122 71.5618 40.6739C71.5618 40.1331 71.0847 39.6673 70.1287 39.2751L70.1156 39.2702C69.6009 39.0595 69.2365 38.8209 69.0224 38.5561C68.8067 38.2914 68.6989 37.9564 68.6989 37.5512C68.6989 36.9955 68.8835 36.5396 69.2544 36.185C69.6237 35.8288 70.1026 35.6506 70.6909 35.6506C71.1305 35.6506 71.5161 35.7504 71.8462 35.9481C72.1763 36.1458 72.4214 36.4269 72.5816 36.7896L72.16 37.0723C72.0554 36.7733 71.8969 36.5429 71.686 36.3828C71.4752 36.221 71.2252 36.1409 70.9344 36.1409C70.6239 36.1409 70.3705 36.2406 70.1728 36.4399C69.9751 36.6393 69.8755 36.8991 69.8755 37.2227C69.8755 37.4776 69.9571 37.6933 70.1206 37.8731C70.2823 38.0512 70.588 38.2358 71.0357 38.4271C71.74 38.731 72.2057 39.0203 72.4296 39.298C72.6551 39.5758 72.7678 39.9321 72.7678 40.3651C72.7678 40.9403 72.5685 41.4142 72.1714 41.7868C71.7743 42.161 71.271 42.3473 70.6614 42.3473C70.2202 42.3473 69.8412 42.2624 69.5225 42.094C69.2022 41.9257 68.9243 41.6642 68.6891 41.3096L69.1629 40.9746Z" fill="black"/>
<path fill-rule="evenodd" clip-rule="evenodd" d="M73.0595 35.8048V34.2112H73.9488V34.4319H73.318V34.8308H73.9488V35.0581H73.318V35.573H73.9488V35.8048H73.0595ZM74.1538 35.4861L74.3611 35.3902C74.3811 35.4616 74.4168 35.5151 74.4681 35.5529C74.5216 35.5908 74.5884 35.6086 74.6687 35.6086C74.7467 35.6086 74.8068 35.5863 74.8536 35.544C74.8982 35.5017 74.9205 35.4438 74.9205 35.3724C74.9205 35.2788 74.8425 35.1963 74.6865 35.1228C74.6664 35.1116 74.6486 35.1027 74.6375 35.0983C74.4614 35.0136 74.3455 34.9356 74.2853 34.8665C74.2274 34.7973 74.1984 34.7127 74.1984 34.6124C74.1984 34.4809 74.243 34.3762 74.3299 34.2959C74.419 34.2156 74.5349 34.1755 74.6776 34.1755C74.7957 34.1755 74.8938 34.1978 74.9718 34.2424C75.052 34.2892 75.1055 34.3539 75.1368 34.4386L74.9339 34.5433C74.9027 34.4921 74.867 34.4564 74.8291 34.4341C74.7913 34.4095 74.7467 34.3984 74.6976 34.3984C74.6286 34.3984 74.5728 34.4162 74.5327 34.4519C74.4903 34.4898 74.4703 34.5366 74.4703 34.599C74.4703 34.6948 74.5617 34.784 74.74 34.8665C74.7556 34.8732 74.7645 34.8776 74.7734 34.882C74.9316 34.9534 75.0387 35.0247 75.0988 35.0938C75.1568 35.1629 75.1858 35.2499 75.1858 35.3545C75.1858 35.5039 75.1389 35.6243 75.0431 35.7134C74.9473 35.8025 74.8202 35.8471 74.6575 35.8471C74.5216 35.8471 74.4102 35.8159 74.3232 35.7535C74.2385 35.6911 74.1805 35.6019 74.1538 35.4861ZM75.9837 34.4319V35.8048H75.7251V34.4319H75.3016V34.2112H76.4049V34.4319H75.9837ZM76.6144 35.6844C76.6144 35.6443 76.6278 35.6109 76.6568 35.5819C76.6836 35.553 76.7169 35.5396 76.757 35.5396C76.7972 35.5396 76.8306 35.553 76.8596 35.5819C76.8863 35.6109 76.8997 35.6443 76.8997 35.6844C76.8997 35.7224 76.8863 35.7558 76.8596 35.7847C76.8306 35.8115 76.7972 35.8249 76.757 35.8249C76.7169 35.8249 76.6836 35.8115 76.6568 35.7847C76.6278 35.7558 76.6144 35.7224 76.6144 35.6844ZM78.8811 35.5975V35.8048H77.8135L78.4086 35.0916C78.4844 35.0024 78.5379 34.9244 78.5713 34.8575C78.6048 34.7885 78.6226 34.7283 78.6226 34.6726C78.6226 34.5946 78.6003 34.5321 78.5535 34.4853C78.5067 34.4408 78.442 34.4185 78.3596 34.4185C78.2883 34.4185 78.2281 34.4408 78.1813 34.4853C78.1345 34.5321 78.1078 34.5923 78.1011 34.6659H77.8514C77.8514 34.5233 77.9005 34.4095 77.9963 34.3227C78.0921 34.238 78.2191 34.1956 78.3818 34.1956C78.5357 34.1956 78.656 34.2357 78.7451 34.3137C78.8343 34.394 78.8789 34.5009 78.8789 34.6369C78.8789 34.735 78.8543 34.833 78.8031 34.9311C78.7518 35.0292 78.6426 35.174 78.4777 35.3635L78.2749 35.5975H78.8811ZM80.3588 35.0381C80.3588 35.2899 80.3076 35.4883 80.2051 35.6331C80.1047 35.7758 79.9643 35.8471 79.786 35.8471C79.6055 35.8471 79.4651 35.7736 79.3648 35.631C79.2645 35.4861 79.2132 35.281 79.2132 35.0203C79.2132 34.7595 79.2645 34.5589 79.3648 34.414C79.4673 34.2669 79.6077 34.1956 79.7882 34.1956C79.971 34.1956 80.1114 34.2692 80.2118 34.414C80.3098 34.5589 80.3588 34.7661 80.3588 35.0381ZM79.7816 35.6243C79.8863 35.6243 79.9666 35.573 80.02 35.4727C80.0735 35.3702 80.1003 35.2186 80.1003 35.018C80.1003 34.8219 80.0735 34.6726 80.0223 34.57C79.9688 34.4675 79.893 34.4162 79.7905 34.4162C79.6857 34.4162 79.6055 34.4675 79.552 34.57C79.4985 34.6726 79.4718 34.8219 79.4718 35.0225C79.4718 35.2164 79.4985 35.3657 79.552 35.4683C79.6055 35.573 79.6813 35.6243 79.7816 35.6243ZM81.0476 35.8048V34.4319H80.7177L80.818 34.2268H81.2838V35.8048H81.0476ZM82.0617 35.4237C82.0995 35.4928 82.1464 35.544 82.2043 35.5797C82.2623 35.6176 82.3269 35.6354 82.3982 35.6354C82.5052 35.6354 82.5899 35.6019 82.6545 35.5351C82.7192 35.4683 82.7526 35.3791 82.7526 35.2698C82.7526 35.1629 82.7192 35.0782 82.6501 35.0113C82.581 34.9467 82.4918 34.9133 82.3804 34.9133C82.3135 34.9133 82.2511 34.9244 82.1954 34.9467C82.1374 34.9712 82.0884 35.0046 82.0439 35.0493L81.9792 35.0359L82.1776 34.2268H82.9309V34.4363H82.3336L82.2399 34.7885C82.2823 34.7707 82.3246 34.7573 82.367 34.7483C82.4071 34.7394 82.4472 34.735 82.4873 34.735C82.6389 34.735 82.7637 34.784 82.8573 34.8798C82.9532 34.9779 83 35.105 83 35.261C83 35.4392 82.9443 35.5819 82.8328 35.6867C82.7236 35.7937 82.5743 35.8471 82.3871 35.8471C82.2779 35.8471 82.182 35.8293 82.0995 35.7892C82.0193 35.7513 81.948 35.6933 81.89 35.6131L82.0617 35.4237Z" fill="#FEFEFE"/>
<path fill-rule="evenodd" clip-rule="evenodd" d="M73.0595 35.8048V34.2112H73.9488V34.4319H73.318V34.8308H73.9488V35.0581H73.318V35.573H73.9488V35.8048H73.0595ZM74.1538 35.4861L74.3611 35.3902C74.3811 35.4616 74.4168 35.5151 74.4681 35.5529C74.5216 35.5908 74.5884 35.6086 74.6687 35.6086C74.7467 35.6086 74.8068 35.5863 74.8536 35.544C74.8982 35.5017 74.9205 35.4438 74.9205 35.3724C74.9205 35.2788 74.8425 35.1963 74.6865 35.1228C74.6664 35.1116 74.6486 35.1027 74.6375 35.0983C74.4614 35.0136 74.3455 34.9356 74.2853 34.8665C74.2274 34.7973 74.1984 34.7127 74.1984 34.6124C74.1984 34.4809 74.243 34.3762 74.3299 34.2959C74.419 34.2156 74.5349 34.1755 74.6776 34.1755C74.7957 34.1755 74.8938 34.1978 74.9718 34.2424C75.052 34.2892 75.1055 34.3539 75.1368 34.4386L74.9339 34.5433C74.9027 34.4921 74.867 34.4564 74.8291 34.4341C74.7913 34.4095 74.7467 34.3984 74.6976 34.3984C74.6286 34.3984 74.5728 34.4162 74.5327 34.4519C74.4903 34.4898 74.4703 34.5366 74.4703 34.599C74.4703 34.6948 74.5617 34.784 74.74 34.8665C74.7556 34.8732 74.7645 34.8776 74.7734 34.882C74.9316 34.9534 75.0387 35.0247 75.0988 35.0938C75.1568 35.1629 75.1858 35.2499 75.1858 35.3545C75.1858 35.5039 75.1389 35.6243 75.0431 35.7134C74.9473 35.8025 74.8202 35.8471 74.6575 35.8471C74.5216 35.8471 74.4102 35.8159 74.3232 35.7535C74.2385 35.6911 74.1805 35.6019 74.1538 35.4861ZM75.9837 34.4319V35.8048H75.7251V34.4319H75.3016V34.2112H76.4049V34.4319H75.9837ZM76.6144 35.6844C76.6144 35.6443 76.6278 35.6109 76.6568 35.5819C76.6836 35.553 76.7169 35.5396 76.757 35.5396C76.7972 35.5396 76.8306 35.553 76.8596 35.5819C76.8863 35.6109 76.8997 35.6443 76.8997 35.6844C76.8997 35.7224 76.8863 35.7558 76.8596 35.7847C76.8306 35.8115 76.7972 35.8249 76.757 35.8249C76.7169 35.8249 76.6836 35.8115 76.6568 35.7847C76.6278 35.7558 76.6144 35.7224 76.6144 35.6844ZM78.8811 35.5975V35.8048H77.8135L78.4086 35.0916C78.4844 35.0024 78.5379 34.9244 78.5713 34.8575C78.6048 34.7885 78.6226 34.7283 78.6226 34.6726C78.6226 34.5946 78.6003 34.5321 78.5535 34.4853C78.5067 34.4408 78.442 34.4185 78.3596 34.4185C78.2883 34.4185 78.2281 34.4408 78.1813 34.4853C78.1345 34.5321 78.1078 34.5923 78.1011 34.6659H77.8514C77.8514 34.5233 77.9005 34.4095 77.9963 34.3227C78.0921 34.238 78.2191 34.1956 78.3818 34.1956C78.5357 34.1956 78.656 34.2357 78.7451 34.3137C78.8343 34.394 78.8789 34.5009 78.8789 34.6369C78.8789 34.735 78.8543 34.833 78.8031 34.9311C78.7518 35.0292 78.6426 35.174 78.4777 35.3635L78.2749 35.5975H78.8811ZM80.3588 35.0381C80.3588 35.2899 80.3076 35.4883 80.2051 35.6331C80.1047 35.7758 79.9643 35.8471 79.786 35.8471C79.6055 35.8471 79.4651 35.7736 79.3648 35.631C79.2645 35.4861 79.2132 35.281 79.2132 35.0203C79.2132 34.7595 79.2645 34.5589 79.3648 34.414C79.4673 34.2669 79.6077 34.1956 79.7882 34.1956C79.971 34.1956 80.1114 34.2692 80.2118 34.414C80.3098 34.5589 80.3588 34.7661 80.3588 35.0381ZM79.7816 35.6243C79.8863 35.6243 79.9666 35.573 80.02 35.4727C80.0735 35.3702 80.1003 35.2186 80.1003 35.018C80.1003 34.8219 80.0735 34.6726 80.0223 34.57C79.9688 34.4675 79.893 34.4162 79.7905 34.4162C79.6857 34.4162 79.6055 34.4675 79.552 34.57C79.4985 34.6726 79.4718 34.8219 79.4718 35.0225C79.4718 35.2164 79.4985 35.3657 79.552 35.4683C79.6055 35.573 79.6813 35.6243 79.7816 35.6243ZM81.0476 35.8048V34.4319H80.7177L80.818 34.2268H81.2838V35.8048H81.0476ZM82.0617 35.4237C82.0995 35.4928 82.1464 35.544 82.2043 35.5797C82.2623 35.6176 82.3269 35.6354 82.3982 35.6354C82.5052 35.6354 82.5899 35.6019 82.6545 35.5351C82.7192 35.4683 82.7526 35.3791 82.7526 35.2698C82.7526 35.1629 82.7192 35.0782 82.6501 35.0113C82.581 34.9467 82.4918 34.9133 82.3804 34.9133C82.3135 34.9133 82.2511 34.9244 82.1954 34.9467C82.1374 34.9712 82.0884 35.0046 82.0439 35.0493L81.9792 35.0359L82.1776 34.2268H82.9309V34.4363H82.3336L82.2399 34.7885C82.2823 34.7707 82.3246 34.7573 82.367 34.7483C82.4071 34.7394 82.4472 34.735 82.4873 34.735C82.6389 34.735 82.7637 34.784 82.8573 34.8798C82.9532 34.9779 83 35.105 83 35.261C83 35.4392 82.9443 35.5819 82.8328 35.6867C82.7236 35.7937 82.5743 35.8471 82.3871 35.8471C82.2779 35.8471 82.182 35.8293 82.0995 35.7892C82.0193 35.7513 81.948 35.6933 81.89 35.6131L82.0617 35.4237Z" fill="black"/>
<path fill-rule="evenodd" clip-rule="evenodd" d="M1.1251 42.2217V38.2474H0V37.925H3.03983V38.2474H1.91473V42.2217H1.1251ZM4.13873 42.2217H3.51364V37.6223H4.13873V40.557H5.20464V39.4055H5.82973V42.2217H5.20464V40.8004H4.13873V42.2217ZM6.71148 39.9122C6.71148 39.7016 6.74435 39.5634 6.81018 39.5042C6.88251 39.4384 7.02069 39.4055 7.23789 39.4055H8.58012V39.6489H7.61949C7.5076 39.6489 7.42864 39.6621 7.39579 39.695C7.35631 39.7279 7.33657 39.7871 7.33657 39.8727V40.5833H8.35643V40.8596H7.33657V41.7545C7.33657 41.84 7.35631 41.8992 7.39579 41.9322C7.43528 41.9651 7.52078 41.9783 7.66551 41.9783H8.61304V42.2217H7.13912C6.98122 42.2217 6.86941 42.1888 6.80354 42.123C6.74435 42.0572 6.71148 41.919 6.71148 41.715V39.9122Z" fill="black"/>
</svg>
